# xmcd CD database file
#
# Track frame offsets:
#	150
#	32807
#	72797
#	105840
#	161037
#	192520
#	232450
#	273547
#
# Disc length: 4408 seconds
#
# Revision: 0
# Processed by: cddbd v1.5.1PL0 Copyright (c) Steve Scherf et al.
# Submitted via: CDex 1.51
#
DISCID=71113608
DTITLE=Oliver Lake Quintet - Talkin' Stick
DYEAR=1900
DGENRE=Jazz
TTITLE0=Talkin' Stick
TTITLE1=Hard Blues
TTITLE2=Reminds Me
TTITLE3=Masaai Move
TTITLE4=Only If You Live There
TTITLE5=Shifts
TTITLE6=Song For Jay
TTITLE7=Philly Blues
EXTD=
EXTT0=
EXTT1=
EXTT2=
EXTT3=
EXTT4=
EXTT5=
EXTT6=
EXTT7=
PLAYORDER=
